<svg width="1021" height="294" viewBox="0 0 1021 294" fill="none" xmlns="http://www.w3.org/2000/svg">
<path fill-rule="evenodd" clip-rule="evenodd" d="M965.588 261.574C959.432 264.224 952.643 266.686 945.221 268.959C938.012 271.17 930.288 273.205 922.051 275.064C913.813 276.923 905.18 278.617 896.153 280.147C886.912 281.739 877.383 283.135 867.566 284.336C857.535 285.6 847.216 286.667 836.609 287.539C826.026 288.497 815.062 289.334 803.714 290.049C792.58 290.702 781.076 291.276 769.202 291.772C757.328 292.268 745.297 292.623 733.11 292.837C720.947 293.138 708.521 293.328 695.832 293.409C683.168 293.576 670.36 293.645 657.408 293.617C644.693 293.612 631.741 293.583 618.55 293.531C605.547 293.33 592.438 293.16 579.222 293.022C566.006 292.884 552.777 292.702 539.536 292.478C526.32 292.34 513.092 292.158 499.851 291.934C486.848 291.733 473.845 291.532 460.841 291.332C447.864 291.217 434.992 291.071 422.227 290.894C409.488 290.803 396.879 290.766 384.403 290.785C371.901 290.717 359.638 290.673 347.612 290.653C335.374 290.695 323.48 290.729 311.931 290.756C300.143 290.759 288.594 290.785 277.283 290.836C266.184 290.823 255.205 290.823 244.344 290.834C233.696 290.783 223.168 290.743 212.758 290.716C202.561 290.626 192.684 290.442 183.125 290.164C173.379 290.035 163.952 289.812 154.845 289.496C145.762 289.265 137.106 288.91 128.874 288.429C120.405 287.925 112.387 287.382 104.819 286.8C97.0135 286.194 89.6334 285.464 82.6789 284.608C75.7244 283.753 69.2082 282.815 63.1301 281.796C57.0268 280.69 51.2426 279.491 45.7776 278.198C40.5254 276.842 35.6988 275.362 31.2977 273.756C26.8967 272.151 22.9085 270.377 19.3333 268.436C15.7834 266.58 12.7528 264.525 10.2416 262.271C7.70503 259.931 5.59406 257.466 3.90865 254.875C2.46132 252.309 1.41427 249.531 0.767523 246.542C0.333556 243.491 0.21877 240.346 0.423161 237.107C0.84034 233.806 1.68309 230.38 2.95141 226.828C4.21973 223.277 5.91362 219.601 8.03309 215.799C9.93977 212.061 12.272 208.197 15.0298 204.208C18.0257 200.243 21.2344 196.215 24.6559 192.125C28.0773 188.034 31.937 183.862 36.2349 179.608C40.32 175.416 44.7495 171.217 49.5236 167.01C54.2723 162.717 59.2591 158.447 64.484 154.201C69.6836 149.869 75.1339 145.604 80.8349 141.405C86.7234 137.057 92.7562 132.808 98.9333 128.656C105.085 124.418 111.381 120.278 117.822 116.236C124.262 112.194 130.953 108.219 137.895 104.31C144.599 100.377 151.554 96.5114 158.759 92.7121C165.751 88.9753 172.901 85.3795 180.207 81.9245C187.276 78.4459 194.501 75.1082 201.883 71.9114C209.453 68.5661 216.967 65.4241 224.425 62.4855C231.908 59.6329 239.31 56.8977 246.631 54.2798C254.19 51.6855 261.788 49.2203 269.423 46.8842C277.032 44.462 284.693 42.2119 292.403 40.134C299.902 38.1186 307.531 36.1579 315.293 34.2522C322.867 32.4949 330.572 30.7925 338.409 29.1449C346.034 27.5599 353.684 26.0608 361.359 24.6479C369.034 23.2349 376.734 21.908 384.46 20.6672C392.21 19.5125 399.974 18.4008 407.75 17.3321C415.526 16.2634 423.221 15.312 430.835 14.478C438.662 13.5814 446.395 12.7592 454.034 12.0112C461.673 11.2632 469.325 10.5582 476.99 9.89633C484.679 9.32049 492.369 8.74463 500.059 8.16879C507.536 7.65544 515.132 7.15389 522.847 6.66411C530.349 6.23683 537.864 5.8526 545.392 5.51138C552.919 5.17016 560.434 4.78592 567.936 4.35865C575.464 4.01744 582.885 3.70747 590.2 3.42877C597.515 3.15006 604.829 2.87136 612.144 2.59265C619.459 2.31394 626.774 2.03522 634.089 1.75652C641.191 1.5403 648.305 1.36714 655.432 1.237C662.534 1.02079 669.555 0.921883 676.495 0.940314C683.622 0.810183 690.656 0.754341 697.595 0.772772C704.322 0.853695 711.168 0.946391 718.133 1.05089C724.911 1.30397 731.595 1.63131 738.185 2.03296C744.962 2.28601 751.565 2.73069 757.993 3.36695C764.608 3.85465 771.142 4.45967 777.595 5.18201C784.048 5.90435 790.42 6.744 796.711 7.70097C803.027 8.74402 809.25 9.86133 815.378 11.0529C821.532 12.3306 827.711 13.6944 833.916 15.1442C839.907 16.6565 845.831 18.3292 851.686 20.1622C857.515 21.9091 863.289 23.8595 869.006 26.0132C874.724 28.1669 880.373 30.481 885.954 32.9554C891.535 35.4298 897.06 38.1076 902.529 40.9888C907.973 43.7839 913.361 46.7825 918.694 49.9843C923.813 53.2488 928.983 56.6853 934.204 60.2939C939.186 63.879 944.1 67.6245 948.946 71.5303C953.579 75.4986 958.13 79.5842 962.601 83.7872C967.071 87.9901 971.342 92.2986 975.412 96.7126C979.457 101.041 983.314 105.517 986.984 110.142C990.629 114.681 994.061 119.283 997.28 123.947C1000.29 128.673 1003.07 133.419 1005.62 138.185C1008.39 142.888 1010.71 147.629 1012.58 152.41C1014.44 157.191 1016.07 161.948 1017.46 166.682C1018.64 171.478 1019.55 176.165 1020.2 180.742C1020.64 185.381 1020.83 189.954 1020.77 194.46C1020.46 198.943 1019.79 203.347 1018.75 207.673C1017.5 212.062 1015.97 216.297 1014.16 220.38C1012.12 224.44 1009.58 228.366 1006.53 232.159C1003.51 236.038 1000.07 239.667 996.204 243.045C992.155 246.572 987.579 249.879 982.477 252.968C977.374 256.056 971.744 258.925 965.588 261.574Z" fill="#1A2535"/>
</svg>
