<svg width="1036" height="366" viewBox="0 0 1036 366" fill="none" xmlns="http://www.w3.org/2000/svg">
<path fill-rule="evenodd" clip-rule="evenodd" d="M973.465 360.39C982.029 359.218 989.761 357.792 996.659 356.114C1003.34 354.534 1009.07 352.665 1013.85 350.507C1018.85 348.336 1022.79 345.882 1025.66 343.146C1028.78 340.482 1031.06 337.565 1032.5 334.395C1033.96 331.31 1034.69 327.966 1034.71 324.363C1034.72 323.805 1034.71 323.243 1034.68 322.676C1035.07 321.373 1035.3 320.022 1035.35 318.623C1035.45 315.883 1034.99 313.007 1033.96 309.998C1032.93 306.988 1031.44 303.871 1029.49 300.647C1027.54 297.422 1025.26 294.117 1022.63 290.732C1022.04 290.025 1021.45 289.317 1020.85 288.605C1020.8 288.524 1020.74 288.443 1020.69 288.362C1017.63 283.904 1014.44 279.368 1011.12 274.753C1007.58 270.151 1003.81 265.519 999.803 260.857C996.014 256.097 992.106 251.302 988.079 246.47C984.062 241.723 979.926 236.94 975.671 232.121C971.644 227.289 967.73 222.451 963.931 217.606C960.141 212.846 956.585 208.116 953.261 203.416C949.937 198.715 946.732 194.051 943.647 189.423C940.799 184.867 938.07 180.347 935.46 175.864C932.85 171.38 930.364 166.976 928.003 162.649C925.641 158.323 923.399 154.033 921.275 149.779C918.924 145.539 916.578 141.34 914.237 137.184C911.907 133.114 909.582 129.086 907.262 125.101C904.704 121.043 902.043 117.077 899.278 113.203C896.752 109.4 893.884 105.618 890.674 101.854C887.465 98.091 884.039 94.4258 880.395 90.8586C876.968 87.1934 873.092 83.5966 868.766 80.0682C864.45 76.6249 859.793 73.2011 854.794 69.7966C849.578 66.4903 844.021 63.2033 838.123 59.9357C832.235 56.7532 825.891 53.5966 819.093 50.4659C812.067 47.348 804.71 44.3347 797.023 41.426C789.108 38.5302 780.861 35.7389 772.284 33.0522C763.924 30.2674 755.13 27.6788 745.901 25.2864C736.662 22.8088 727.211 20.4719 717.548 18.2757C707.896 16.1647 698.031 14.1944 687.955 12.3647C678.106 10.5222 668.05 8.86287 657.788 7.38687C647.525 5.91087 637.175 4.65428 626.737 3.6171C616.527 2.56701 606.229 1.73633 595.843 1.12506C585.685 0.500874 575.444 0.138691 565.12 0.0385127C555.024 -0.0745829 545.073 0.0614073 535.267 0.446484C525.472 0.916743 515.821 1.63609 506.316 2.60452C497.038 3.56003 487.915 4.84982 478.948 6.47387C470.208 8.085 461.733 9.98135 453.521 12.1629C445.082 14.3574 437.02 16.8307 429.337 19.5827C421.643 22.2495 414.093 25.1654 406.689 28.3304C399.523 31.5677 392.486 34.9262 385.579 38.4061C378.682 41.9712 371.92 45.7002 365.292 49.5931C358.654 53.4007 352.15 57.3723 345.781 61.5079C339.629 65.5453 333.379 69.7169 327.031 74.0228C320.91 78.3157 314.903 82.6022 309.01 86.8823L290.679 100.017C284.797 104.382 278.8 108.754 272.69 113.132C266.797 117.412 260.785 121.656 254.654 125.863C248.522 130.071 242.267 134.2 235.888 138.251C229.498 142.216 223.098 146.096 216.687 149.89C210.276 153.685 203.731 157.316 197.051 160.783C190.382 164.335 183.702 167.802 177.012 171.184C170.311 174.481 163.6 177.692 156.879 180.818C150.168 184.03 143.441 187.113 136.699 190.069C130.194 193.097 123.685 196.083 117.17 199.026C110.873 201.871 104.689 204.709 98.6189 207.541C92.3214 210.386 86.2462 213.175 80.3934 215.909C74.7785 218.715 69.2723 221.472 63.8746 224.18C58.4873 226.974 53.4361 229.705 48.7211 232.374C43.7889 235.141 39.2033 237.932 34.9642 240.746C30.7251 243.56 26.8325 246.397 23.2865 249.257C19.7405 252.117 16.6549 254.994 14.0295 257.888C11.187 260.88 8.80482 263.888 6.88296 266.914C4.9611 269.939 3.39098 273.03 2.17261 276.187C1.1714 279.246 0.516732 282.328 0.208606 285.433C-0.099519 288.539 -0.0663034 291.624 0.308254 294.691C0.682812 297.758 1.51249 300.798 2.79729 303.813C4.08209 306.828 5.81682 309.774 8.00146 312.653C9.95854 315.543 12.3655 318.366 15.2225 321.12C18.0794 323.874 21.2672 326.524 24.786 329.069C28.3048 331.614 32.2683 334.048 36.6766 336.37C41.0848 338.693 45.8188 340.869 50.8785 342.898C56.1657 344.914 61.6649 346.789 67.3761 348.523C73.3148 350.244 79.6931 351.812 86.5108 353.226C93.0906 354.568 100.11 355.757 107.569 356.791C114.79 357.754 122.45 358.563 130.55 359.218C138.65 359.873 147.184 360.332 156.153 360.595C164.904 360.956 174.1 361.206 183.741 361.345C193.144 361.412 202.996 361.41 213.299 361.34C223.364 361.197 233.884 361.029 244.858 360.835C255.823 360.556 267.015 360.263 278.435 359.958C289.844 359.568 301.714 359.194 314.044 358.838C326.146 358.494 338.59 358.13 351.375 357.748C363.932 357.378 376.95 357.025 390.428 356.689C403.679 356.366 417.281 356.108 431.235 355.916C445.179 355.64 459.365 355.478 473.795 355.43C488.225 355.383 502.899 355.451 517.815 355.634C532.959 355.803 548.227 356.052 563.619 356.379C579.011 356.706 594.528 357.112 610.168 357.596C625.809 358.081 641.455 358.608 657.106 359.177L704.059 360.887C719.482 361.469 734.787 362.016 749.972 362.526C764.93 363.049 779.65 363.5 794.132 363.879C808.852 364.33 822.982 364.643 836.523 364.818C850.301 365.065 863.604 365.168 876.431 365.126C889.257 365.084 901.381 364.91 912.8 364.605C924.447 364.287 935.386 363.795 945.616 363.129C955.608 362.39 964.891 361.477 973.465 360.39Z" fill="#1A2535"/>
</svg>
